<?xml version="1.0" standalone="no"?>
<!DOCTYPE svg PUBLIC "-//W3C//DTD SVG 20010904//EN"
 "http://www.w3.org/TR/2001/REC-SVG-20010904/DTD/svg10.dtd">
<svg version="1.0" xmlns="http://www.w3.org/2000/svg"
 width="1080.000000pt" height="1080.000000pt" viewBox="0 0 1080.000000 1080.000000"
 preserveAspectRatio="xMidYMid meet">

<g transform="translate(0.000000,1080.000000) scale(0.100000,-0.100000)"
fill="#000000" stroke="none">
<path d="M5239 9305 c23 -21 55 -66 73 -102 30 -62 32 -71 32 -182 0 -79 -6
-138 -19 -186 -16 -64 -70 -208 -99 -265 -31 -61 -99 -187 -114 -211 -167
-262 -258 -484 -297 -721 -35 -215 0 -424 101 -607 49 -87 156 -225 142 -181
-37 110 -42 142 -42 265 -1 214 49 363 199 595 50 78 172 237 219 286 37 38
134 152 193 224 184 229 263 400 263 570 0 158 -55 265 -190 372 -91 72 -280
143 -463 173 l-38 6 40 -36z"/>
<path d="M5924 8461 c29 -32 56 -118 56 -178 0 -65 -31 -175 -67 -241 -69
-124 -128 -199 -288 -367 -154 -162 -156 -165 -219 -250 -235 -319 -289 -653
-150 -925 l33 -65 1 95 c0 114 17 187 69 296 90 190 224 320 602 586 152 107
205 153 283 244 104 121 136 199 136 332 0 72 -4 90 -31 146 -60 122 -165 216
-338 302 -100 49 -112 52 -87 25z"/>
<path d="M6795 6891 c11 -5 75 -30 142 -56 370 -143 534 -338 437 -521 -32
-62 -53 -85 -132 -144 -205 -157 -563 -276 -1102 -369 -103 -17 -174 -26 -485
-61 -297 -32 -1061 -39 -1405 -11 -376 30 -755 87 -1005 152 -177 45 -294 80
-350 104 -16 7 -61 25 -100 40 -38 15 -84 35 -101 46 -55 33 -51 20 6 -21 396
-287 1388 -480 2465 -480 302 0 738 23 948 50 42 6 114 15 160 20 309 39 719
126 879 189 15 5 29 7 32 3 5 -9 -19 -241 -33 -322 -11 -58 -58 -282 -65 -309
-24 -89 -86 -277 -119 -361 -70 -181 -250 -524 -316 -602 -6 -7 -36 -49 -67
-93 -31 -44 -81 -109 -112 -145 -74 -86 -297 -308 -347 -345 -22 -17 -42 -32
-45 -35 -19 -19 -109 -86 -185 -137 -286 -193 -605 -323 -970 -394 -261 -51
-720 -52 -972 0 -46 9 -51 -2 -6 -14 16 -3 42 -13 58 -21 48 -22 229 -82 313
-103 226 -57 478 -91 672 -90 252 0 571 52 830 134 78 25 305 115 340 135 8 5
49 26 90 48 400 211 753 526 1022 913 140 201 258 422 338 629 38 98 44 107
62 93 21 -17 197 -71 272 -84 102 -17 262 -6 368 25 352 104 590 359 663 711
28 133 14 350 -31 475 -65 180 -187 342 -339 451 -167 119 -325 169 -540 169
-108 0 -146 -4 -224 -25 -52 -14 -101 -31 -109 -37 -11 -10 -19 -7 -36 12
-106 120 -429 268 -771 355 -116 29 -157 38 -130 26z m1403 -617 c194 -39 368
-172 450 -344 64 -135 83 -267 57 -405 -39 -207 -162 -370 -348 -459 -184 -88
-375 -91 -560 -8 l-59 26 5 40 c3 23 14 84 25 136 41 193 62 412 62 651 -1
123 -5 243 -9 266 -4 23 -5 46 -2 51 11 17 53 34 119 47 92 18 169 18 260 -1z"/>
<path d="M2082 5647 c-205 -26 -335 -207 -260 -361 34 -71 104 -92 213 -65 75
19 122 94 103 165 -15 59 -78 57 -78 -2 0 -73 -47 -134 -104 -134 -32 0 -83
59 -92 105 -14 79 65 198 154 232 31 12 74 18 127 18 93 0 129 -15 172 -72 60
-78 38 -275 -63 -568 -31 -88 -87 -250 -125 -360 -39 -110 -82 -235 -97 -278
l-27 -79 28 -24 c36 -30 85 -31 122 -2 21 17 105 170 105 192 0 7 119 273 173
386 90 192 125 268 132 291 31 100 187 289 238 289 15 0 30 -6 33 -14 8 -22
-74 -412 -106 -501 -16 -44 -45 -126 -65 -182 -47 -127 -44 -153 16 -153 59 0
96 26 126 90 30 61 101 174 130 205 10 11 54 64 96 118 61 75 83 97 102 97 21
0 25 -5 25 -31 0 -17 -11 -79 -25 -138 -14 -58 -32 -133 -40 -166 -52 -220
-66 -359 -41 -419 39 -95 162 -118 254 -48 66 50 141 182 104 182 -5 0 -43
-36 -85 -79 -72 -74 -110 -101 -124 -87 -8 7 68 406 109 575 34 142 32 185 -9
249 -33 50 -68 66 -133 60 -50 -5 -87 -25 -162 -90 -21 -17 -40 -29 -43 -26
-4 3 4 43 15 89 29 112 25 191 -14 249 -38 57 -77 72 -168 64 -70 -7 -75 -9
-116 -51 -37 -38 -126 -153 -170 -219 -10 -16 -11 -9 -5 41 22 170 -18 313
-106 388 -67 56 -190 81 -319 64z"/>
<path d="M4973 5264 c-58 -59 -63 -68 -50 -81 37 -37 133 18 177 101 12 24 12
28 0 36 -35 22 -62 10 -127 -56z"/>
<path d="M5660 5136 c-45 -13 -90 -36 -90 -46 0 -4 15 -31 33 -61 43 -71 118
-151 180 -192 l50 -34 55 66 c61 73 95 107 138 138 36 27 26 40 -59 82 -115
57 -215 72 -307 47z"/>
<path d="M6298 5119 c-21 -5 -66 -23 -100 -40 -203 -102 -341 -270 -394 -479
-19 -77 -14 -148 15 -216 l21 -47 43 7 c89 13 158 47 227 112 73 69 102 116
151 244 60 157 140 258 265 333 30 17 54 38 54 45 0 7 -19 22 -42 32 -47 21
-170 26 -240 9z"/>
<path d="M3673 5098 c-138 -81 -265 -332 -223 -442 25 -66 168 -74 219 -12 27
32 36 18 36 -53 0 -89 17 -111 85 -111 51 0 99 26 183 100 25 22 47 40 49 40
2 0 -1 -27 -6 -61 -9 -55 -8 -63 9 -75 10 -8 31 -14 45 -14 54 0 84 20 130 86
66 96 103 144 111 144 3 0 9 -29 12 -65 10 -105 31 -124 124 -110 41 6 54 15
116 81 68 71 71 73 81 51 15 -29 72 -57 117 -57 22 0 53 11 82 30 54 34 71 37
63 13 -17 -58 -17 -74 3 -118 l21 -47 58 4 c67 5 114 33 208 125 75 73 157
180 149 193 -3 6 -18 10 -33 10 -28 0 -47 -19 -130 -125 -25 -33 -55 -68 -67
-79 -27 -25 -92 -66 -105 -66 -18 0 -10 38 25 119 19 43 35 86 35 94 0 19 -47
57 -69 57 -9 0 -56 -29 -106 -65 -49 -35 -93 -65 -97 -65 -22 0 7 121 47 200
13 25 44 73 69 107 35 48 50 61 63 56 34 -12 53 -36 59 -74 9 -56 27 -66 54
-32 60 76 -35 173 -170 173 -40 0 -96 -36 -140 -90 -19 -24 -40 -49 -47 -55
-18 -19 -83 -145 -83 -162 0 -16 -167 -193 -182 -193 -4 0 -8 33 -9 73 -1 95
-9 119 -44 136 -25 12 -32 12 -60 -3 -24 -13 -120 -117 -162 -175 -12 -17 -11
17 2 78 22 106 20 156 -7 175 -50 35 -103 9 -113 -56 -8 -52 -20 -71 -103
-171 -62 -74 -141 -135 -161 -123 -11 7 -4 32 33 125 32 79 32 91 5 120 -17
18 -28 22 -52 17 -17 -4 -33 -10 -37 -15 -9 -14 -148 -111 -159 -111 -14 0
-14 14 3 78 31 116 134 282 174 282 24 0 62 -41 62 -66 1 -10 6 -29 13 -42 11
-19 15 -20 31 -9 10 7 20 31 23 55 5 36 2 47 -18 68 -13 14 -36 32 -51 40 -40
21 -138 28 -165 12z"/>
<path d="M5499 5003 c-31 -66 -31 -174 -1 -266 41 -125 143 -266 246 -340 l29
-21 -9 30 c-5 16 -9 74 -9 129 0 84 5 110 26 162 l26 62 -58 42 c-58 42 -149
134 -149 150 0 5 -4 9 -8 9 -4 0 -18 20 -30 45 -12 25 -26 45 -31 45 -6 0 -20
-21 -32 -47z"/>
<path d="M6561 4994 c-29 -20 -76 -59 -105 -87 -56 -55 -156 -198 -156 -223 0
-34 -63 -174 -96 -212 -49 -57 -146 -124 -222 -153 -75 -29 -77 -45 -7 -71 97
-35 223 -7 375 84 105 63 178 138 252 258 53 87 76 149 85 231 8 81 -28 209
-60 209 -7 0 -36 -16 -66 -36z"/>
<path d="M2913 4013 c-39 -20 -57 -63 -41 -97 10 -24 57 -49 110 -60 15 -4 39
-17 55 -30 25 -21 26 -26 15 -50 -22 -50 -118 -60 -154 -16 -27 34 -52 24 -25
-11 30 -40 113 -52 166 -25 53 28 63 99 18 129 -12 8 -47 21 -78 30 -57 17
-89 42 -89 69 0 46 104 67 137 28 18 -20 43 -27 43 -12 0 5 -10 18 -23 30 -31
29 -93 36 -134 15z"/>
<path d="M3723 4010 c-113 -50 -124 -196 -21 -273 38 -29 118 -34 154 -11 66
43 84 73 84 142 0 63 -30 109 -90 140 -53 26 -71 27 -127 2z m119 -26 c66 -34
92 -102 65 -166 -21 -50 -65 -78 -122 -78 -42 0 -52 5 -86 39 -35 35 -39 44
-39 89 0 43 5 57 30 86 42 47 98 58 152 30z"/>
<path d="M4645 3995 c-9 -22 -39 -93 -66 -157 -27 -65 -49 -120 -49 -123 0 -3
6 -5 13 -5 7 0 20 19 28 43 l16 42 71 3 71 3 20 -46 c11 -25 25 -45 31 -45 15
0 9 18 -60 185 l-59 140 -16 -40z m48 -97 c14 -35 23 -66 20 -70 -5 -9 -97
-11 -105 -2 -7 7 43 134 53 134 4 0 18 -28 32 -62z"/>
<path d="M2070 3865 c0 -91 4 -155 10 -155 5 0 10 28 12 63 3 53 6 62 23 65
14 1 33 -16 68 -63 26 -36 55 -65 63 -65 18 0 13 9 -33 66 -18 23 -33 45 -33
50 0 5 13 15 28 22 57 25 68 97 23 143 -27 26 -36 29 -95 29 l-66 0 0 -155z
m147 113 c7 -6 13 -28 13 -49 0 -50 -30 -72 -92 -67 l-43 3 -3 54 c-4 77 -2
81 59 75 29 -3 59 -10 66 -16z"/>
<path d="M2470 3865 l0 -155 90 0 c73 0 90 3 90 15 0 12 -16 15 -80 15 l-80 0
0 55 c0 37 4 55 13 56 6 1 19 2 27 3 8 2 40 3 70 4 77 3 51 20 -35 24 l-70 3
0 55 c0 42 4 55 15 56 8 1 43 2 78 3 99 2 74 21 -28 21 l-90 0 0 -155z"/>
<path d="M3260 4010 c0 -5 18 -10 40 -10 l39 0 3 -142 c2 -87 7 -143 13 -143
6 0 11 56 13 143 l3 142 40 0 c24 0 38 4 34 10 -3 6 -46 10 -96 10 -53 0 -89
-4 -89 -10z"/>
<path d="M4160 3864 l0 -156 69 4 c74 4 105 21 122 65 11 29 -7 80 -33 94 -18
10 -18 12 -4 28 17 18 21 68 8 87 -14 22 -52 34 -106 34 l-56 0 0 -156z m103
127 c19 -1 31 -8 38 -25 16 -34 -3 -62 -46 -70 -57 -11 -70 -2 -69 46 1 58 1
58 27 54 12 -3 34 -5 50 -5z m51 -153 c21 -30 20 -54 -5 -79 -16 -16 -30 -19
-72 -17 l-52 3 -3 58 -3 57 60 0 c51 0 62 -3 75 -22z"/>
<path d="M4990 3865 c0 -131 2 -155 15 -155 12 0 15 14 15 65 0 58 2 65 20 65
13 0 36 -22 67 -65 29 -40 54 -65 65 -65 16 0 10 11 -28 60 -26 33 -45 61 -43
63 2 1 17 9 33 17 40 21 61 73 45 112 -16 40 -57 58 -129 58 l-60 0 0 -155z
m153 107 c23 -21 21 -61 -5 -89 -17 -18 -32 -23 -70 -23 l-48 0 0 69 0 68 53
-5 c28 -2 60 -11 70 -20z"/>
<path d="M3250 3330 c-19 -5 -96 -21 -170 -35 -250 -49 -536 -137 -675 -208
-156 -80 -245 -169 -245 -246 0 -115 183 -251 460 -341 203 -66 407 -114 730
-170 67 -12 242 -35 410 -54 636 -75 1586 -89 2310 -36 323 24 996 114 1019
136 7 7 -42 4 -104 -6 -68 -10 -381 -34 -655 -50 -280 -15 -1054 -13 -1372 5
-276 16 -632 47 -743 65 -33 5 -127 19 -208 30 -229 32 -504 88 -642 130 -16
6 -70 21 -120 36 -100 29 -115 35 -261 105 -154 73 -244 166 -244 250 0 37 20
99 32 99 4 0 8 5 8 10 0 20 150 140 175 140 3 0 29 12 58 26 71 35 148 64 170
64 9 0 17 5 17 10 0 6 8 10 18 11 9 0 42 8 72 19 44 14 49 18 25 18 -16 0 -46
-4 -65 -8z"/>
</g>
</svg>
